<svg xmlns="http://www.w3.org/2000/svg" xmlns:xlink="http://www.w3.org/1999/xlink" width="64" height="64" viewBox="0 0 64 64">
    <defs>
        <path id="a" d="M.004.017h41.828v40.932H.004z"/>
        <path id="c" d="M0 .004h59v29.792H0z"/>
    </defs>
    <g fill="none" fill-rule="evenodd">
        <path fill="#E8A764" d="M22 14a1 1 0 1 0 0-2 1 1 0 0 0 0 2M28.5 50.75c-1.24 0-2.25-1.01-2.25-2.25s1.01-2.25 2.25-2.25 2.25 1.01 2.25 2.25-1.01 2.25-2.25 2.25m0-6.75a4.505 4.505 0 0 0-4.5 4.5c0 2.481 2.019 4.5 4.5 4.5s4.5-2.019 4.5-4.5-2.019-4.5-4.5-4.5M51.5 46.25c1.24 0 2.25 1.01 2.25 2.25s-1.01 2.25-2.25 2.25-2.25-1.01-2.25-2.25 1.01-2.25 2.25-2.25m0 6.75c2.481 0 4.5-2.019 4.5-4.5S53.981 44 51.5 44a4.505 4.505 0 0 0-4.5 4.5c0 2.481 2.019 4.5 4.5 4.5"/>
        <g transform="translate(19 17)">
            <mask id="b" fill="#fff">
                <use xlink:href="#a"/>
            </mask>
            <path fill="#E8A764" d="M28.074.237l-.012-.01a1.16 1.16 0 0 0-1.62.286L16.058 15.36l-1.627 2.326-2.222 3.177c-.661.946-1.687 1.503-2.74 1.478-4.74-.076-8.484 3.283-9.29 7.462-.595 3.084.356 6.233 2.545 8.424 2.195 2.197 5.344 3.141 8.416 2.548 3.604-.697 6.52-3.58 7.255-7.174a9.554 9.554 0 0 0 .08-3.449c-.12-.75-.129-1.838.52-2.767l1.924-2.75 1.923 2.75c.65.929.641 2.018.52 2.767a9.553 9.553 0 0 0 .081 3.45c.735 3.593 3.65 6.476 7.254 7.173a9.56 9.56 0 0 0 1.814.174c2.465 0 4.843-.961 6.602-2.722 2.189-2.19 3.14-5.34 2.546-8.424a9.267 9.267 0 0 0-9.293-7.462c-1.048.02-2.076-.532-2.737-1.478l-2.222-3.177V15.36l2.651-3.79c.195-.277.37-.566.527-.863l.811-2.327a8.196 8.196 0 0 0-1.117-5.817L28.074.237zm4.235 24.431c3.928 0 6.509 2.68 7.067 5.576.454 2.36-.24 4.67-1.907 6.339-1.667 1.667-3.974 2.362-6.332 1.907-2.65-.512-4.877-2.715-5.418-5.355a7.237 7.237 0 0 1-.063-2.612c.268-1.66-.056-3.249-.91-4.473l-2.41-3.443 2.838-4.055 2.55 3.645c1.085 1.553 2.794 2.471 4.585 2.471zM17.09 26.05c-.856 1.224-1.18 2.813-.911 4.473a7.23 7.23 0 0 1-.064 2.611c-.54 2.641-2.768 4.844-5.417 5.356-2.358.455-4.666-.24-6.333-1.908-1.666-1.669-2.36-3.978-1.906-6.338.588-3.048 3.387-5.636 6.967-5.577 1.83.035 3.58-.89 4.685-2.47l13.5-19.3a5.828 5.828 0 0 1 .542 7.338L17.091 26.05z" mask="url(#b)"/>
            <path fill="#E8A764" d="M28.074.237l-.012-.01a1.16 1.16 0 0 0-1.62.286L16.058 15.36l-1.627 2.326-2.222 3.177c-.661.946-1.687 1.503-2.74 1.478-4.74-.076-8.484 3.283-9.29 7.462-.595 3.084.356 6.233 2.545 8.424 2.195 2.197 5.344 3.141 8.416 2.548 3.604-.697 6.52-3.58 7.255-7.174a9.554 9.554 0 0 0 .08-3.449c-.12-.75-.129-1.838.52-2.767l1.924-2.75 1.923 2.75c.65.929.641 2.018.52 2.767a9.553 9.553 0 0 0 .081 3.45c.735 3.593 3.65 6.476 7.254 7.173a9.56 9.56 0 0 0 1.814.174c2.465 0 4.843-.961 6.602-2.722 2.189-2.19 3.14-5.34 2.546-8.424a9.267 9.267 0 0 0-9.293-7.462c-1.048.02-2.076-.532-2.737-1.478l-2.222-3.177V15.36l2.651-3.79c.195-.277.37-.566.527-.863l.811-2.327a8.196 8.196 0 0 0-1.117-5.817L28.074.237zm4.235 24.431c3.928 0 6.509 2.68 7.067 5.576.454 2.36-.24 4.67-1.907 6.339-1.667 1.667-3.974 2.362-6.332 1.907-2.65-.512-4.877-2.715-5.418-5.355a7.237 7.237 0 0 1-.063-2.612c.268-1.66-.056-3.249-.91-4.473l-2.41-3.443 2.838-4.055 2.55 3.645c1.085 1.553 2.794 2.471 4.585 2.471zM17.09 26.05c-.856 1.224-1.18 2.813-.911 4.473a7.23 7.23 0 0 1-.064 2.611c-.54 2.641-2.768 4.844-5.417 5.356-2.358.455-4.666-.24-6.333-1.908-1.666-1.669-2.36-3.978-1.906-6.338.588-3.048 3.387-5.636 6.967-5.577 1.83.035 3.58-.89 4.685-2.47l13.5-19.3a5.828 5.828 0 0 1 .542 7.338L17.091 26.05z" mask="url(#b)"/>
        </g>
        <path fill="#E8A764" d="M39 14c-.552 0-1 .56-1 1.25v2.5c0 .69.448 1.25 1 1.25s1-.56 1-1.25v-2.5c0-.69-.448-1.25-1-1.25M31.868 26h-9.736c-.625 0-1.132.448-1.132 1s.507 1 1.132 1h9.736c.625 0 1.132-.448 1.132-1s-.507-1-1.132-1M31.868 19h-9.736c-.625 0-1.132.448-1.132 1s.507 1 1.132 1h9.736c.625 0 1.132-.448 1.132-1s-.507-1-1.132-1M52.875 12h-6.75c-.621 0-1.125.448-1.125 1s.504 1 1.125 1h6.75c.621 0 1.125-.448 1.125-1s-.504-1-1.125-1M31.788 12h-5.576c-.67 0-1.212.448-1.212 1s.543 1 1.212 1h5.576c.67 0 1.212-.448 1.212-1s-.543-1-1.212-1M22 14a1 1 0 1 0 0-2 1 1 0 0 0 0 2M28.5 50.75c-1.24 0-2.25-1.01-2.25-2.25s1.01-2.25 2.25-2.25 2.25 1.01 2.25 2.25-1.01 2.25-2.25 2.25m0-6.75a4.505 4.505 0 0 0-4.5 4.5c0 2.481 2.019 4.5 4.5 4.5s4.5-2.019 4.5-4.5-2.019-4.5-4.5-4.5M51.5 46.25c1.24 0 2.25 1.01 2.25 2.25s-1.01 2.25-2.25 2.25-2.25-1.01-2.25-2.25 1.01-2.25 2.25-2.25m0 6.75c2.481 0 4.5-2.019 4.5-4.5S53.981 44 51.5 44a4.505 4.505 0 0 0-4.5 4.5c0 2.481 2.019 4.5 4.5 4.5"/>
        <path fill="#E8A764" d="M39 14c-.552 0-1 .56-1 1.25v2.5c0 .69.448 1.25 1 1.25s1-.56 1-1.25v-2.5c0-.69-.448-1.25-1-1.25M31.868 26h-9.736c-.625 0-1.132.448-1.132 1s.507 1 1.132 1h9.736c.625 0 1.132-.448 1.132-1s-.507-1-1.132-1M31.868 19h-9.736c-.625 0-1.132.448-1.132 1s.507 1 1.132 1h9.736c.625 0 1.132-.448 1.132-1s-.507-1-1.132-1M52.875 12h-6.75c-.621 0-1.125.448-1.125 1s.504 1 1.125 1h6.75c.621 0 1.125-.448 1.125-1s-.504-1-1.125-1M31.788 12h-5.576c-.67 0-1.212.448-1.212 1s.543 1 1.212 1h5.576c.67 0 1.212-.448 1.212-1s-.543-1-1.212-1"/>
        <g transform="translate(2 8)">
            <mask id="d" fill="#fff">
                <use xlink:href="#c"/>
            </mask>
            <path fill="#E8A764" d="M48.148 29.796h7.395c1.906 0 3.457-1.542 3.457-3.437V3.442C59 1.546 57.45.004 55.543.004H3.457C1.551.004 0 1.546 0 3.442v22.917c0 1.895 1.55 3.437 3.457 3.437h24.91l1.614-2.292H3.457a1.15 1.15 0 0 1-1.152-1.145V3.442a1.15 1.15 0 0 1 1.152-1.146h32.496v1.146c0 .632.516 1.145 1.152 1.145a1.15 1.15 0 0 0 1.153-1.145V2.296h17.285a1.15 1.15 0 0 1 1.152 1.146v22.917a1.15 1.15 0 0 1-1.152 1.145h-7.394v2.292z" mask="url(#d)"/>
            <path fill="#E8A764" d="M48.148 29.796h7.395c1.906 0 3.457-1.542 3.457-3.437V3.442C59 1.546 57.45.004 55.543.004H3.457C1.551.004 0 1.546 0 3.442v22.917c0 1.895 1.55 3.437 3.457 3.437h24.91l1.614-2.292H3.457a1.15 1.15 0 0 1-1.152-1.145V3.442a1.15 1.15 0 0 1 1.152-1.146h32.496v1.146c0 .632.516 1.145 1.152 1.145a1.15 1.15 0 0 0 1.153-1.145V2.296h17.285a1.15 1.15 0 0 1 1.152 1.146v22.917a1.15 1.15 0 0 1-1.152 1.145h-7.394v2.292z" mask="url(#d)"/>
        </g>
        <path fill="#E8A764" d="M16.342 15.507c.362 0 .658-.337.658-.753 0-.417-.296-.754-.658-.754H8.657c-.363 0-.657.337-.657.754 0 .416.294.753.657.753h2.199c1.198.018 2.24.94 2.556 2.262H8.657c-.363 0-.657.337-.657.754 0 .416.294.753.657.753h4.755c-.317 1.322-1.358 2.243-2.556 2.262H8.657c-.366.003-.66.346-.657.767a.815.815 0 0 0 .206.543l5.494 5.946a.604.604 0 0 0 .932-.03.84.84 0 0 0-.027-1.07l-4.29-4.649h.54c1.93-.002 3.576-1.593 3.901-3.769h1.586c.362 0 .658-.337.658-.753 0-.417-.296-.754-.658-.754h-1.586a4.736 4.736 0 0 0-.956-2.262h2.542z"/>
    </g>
</svg>
